# xmcd
#
# Track frame offsets: 
#        150
#        14367
#        26816
#        43787
#        59857
#        74379
#        92633
#        106974
#        130425
#        145504
#        157547
#        172907
#        185833
#        199483
#        212708
#
# Disc length: 3090 seconds
#
# Revision: 0
# Processed by: cddbd v1.5.2PL0 Copyright (c) Steve Scherf et al.
# Submitted via: ExactAudioCopy v1.1
#
DISCID=db0c100f
DTITLE=Handl - Spellbound In The Strings
DYEAR=2016
DGENRE=Bluegrass
TTITLE0=To Let You Go
TTITLE1=Who Knows What Tommorow May Bring
TTITLE2=Midnight Rider
TTITLE3=Slow Me Down
TTITLE4=Tell Me Why
TTITLE5=Eager And Anxious
TTITLE6=World's Biggest Fool
TTITLE7=I Can't Belive
TTITLE8=Most Likely You Go Your Way And I Go Mine
TTITLE9=You Don't Knock
TTITLE10=Alabama Jubilee
TTITLE11=Glory
TTITLE12=Sawing On The Strings
TTITLE13=Oáza usmíření
TTITLE14=House Of The Rising Sun
EXTD=
EXTT0=
EXTT1=
EXTT2=
EXTT3=
EXTT4=
EXTT5=
EXTT6=
EXTT7=
EXTT8=
EXTT9=
EXTT10=
EXTT11=
EXTT12=
EXTT13=
EXTT14=
PLAYORDER=
